HIERARCHY
ROOT SpineBase
{
  OFFSET 0.000000 0.000000 0.000000
  CHANNELS 6 Xposition Yposition Zposition Zrotation Xrotation Yrotation
  JOINT SpineMid
  {
    OFFSET 0.000000 31.772936 0.000000
    CHANNELS 3 Zrotation Xrotation Yrotation
    JOINT SpineShoulder
    {
      OFFSET 0.002695 23.473868 -0.742067
      CHANNELS 3 Zrotation Xrotation Yrotation
      JOINT Neck
      {
        OFFSET 0.067051 7.752986 -0.490943
        CHANNELS 3 Zrotation Xrotation Yrotation
        JOINT Head
        {
          OFFSET 2.294268 11.683404 3.480161
          CHANNELS 3 Zrotation Xrotation Yrotation
          End Site
          {
            OFFSET 0 0 0
          }
        }
      }
      JOINT ShoulderLeft
      {
        OFFSET -0.621546 -5.572784 -13.835384
        CHANNELS 3 Zrotation Xrotation Yrotation
        JOINT ElbowLeft
        {
          OFFSET 2.475638 -23.603760 -7.024262
          CHANNELS 3 Zrotation Xrotation Yrotation
          JOINT WristLeft
          {
            OFFSET 17.163944 -6.854525 11.795328
            CHANNELS 3 Zrotation Xrotation Yrotation
            JOINT HandLeft
            {
              OFFSET 6.157085 -1.663989 5.905909
              CHANNELS 3 Zrotation Xrotation Yrotation
              JOINT HandTipLeft
              {
                OFFSET 4.982859 -0.599808 4.408318
                CHANNELS 3 Zrotation Xrotation Yrotation
                End Site
                {
                  OFFSET 0 0 0
                }
              }
              JOINT ThumbLeft
              {
                OFFSET 1.834885 3.484802 1.079584
                CHANNELS 3 Zrotation Xrotation Yrotation
                End Site
                {
                  OFFSET 0 0 0
                }
              }
            }
          }
        }
      }
      JOINT ShoulderRight
      {
        OFFSET 4.363751 -1.479713 16.558660
        CHANNELS 3 Zrotation Xrotation Yrotation
        JOINT ElbowRight
        {
          OFFSET 3.486049 -21.505347 10.485287
          CHANNELS 3 Zrotation Xrotation Yrotation
          JOINT WristRight
          {
            OFFSET -3.560605 -23.847035 -2.997357
            CHANNELS 3 Zrotation Xrotation Yrotation
            JOINT HandRight
            {
              OFFSET 5.785791 -11.306135 -4.303548
              CHANNELS 3 Zrotation Xrotation Yrotation
              JOINT HandTipRight
              {
                OFFSET 0.824324 -2.520541 -4.066340
                CHANNELS 3 Zrotation Xrotation Yrotation
                End Site
                {
                  OFFSET 0 0 0
                }
              }
              JOINT ThumbRight
              {
                OFFSET 0.432027 -1.752569 -5.090352
                CHANNELS 3 Zrotation Xrotation Yrotation
                End Site
                {
                  OFFSET 0 0 0
                }
              }
            }
          }
        }
      }
    }
  }
  JOINT HipLeft
  {
    OFFSET -0.276649 0.634109 -5.681490
    CHANNELS 3 Zrotation Xrotation Yrotation
    JOINT KneeLeft
    {
      OFFSET 0.026321 -38.108401 -2.724259
      CHANNELS 3 Zrotation Xrotation Yrotation
      JOINT AnkleLeft
      {
        OFFSET -10.671346 -32.688595 1.218383
        CHANNELS 3 Zrotation Xrotation Yrotation
        JOINT FootLeft
        {
          OFFSET 10.327805 -3.864265 -3.821003
          CHANNELS 3 Zrotation Xrotation Yrotation
          End Site
          {
            OFFSET 0 0 0
          }
        }
      }
    }
  }
  JOINT HipRight
  {
    OFFSET 1.752369 0.927484 -0.089514
    CHANNELS 3 Zrotation Xrotation Yrotation
    JOINT KneeRight
    {
      OFFSET -1.848446 -31.365768 -9.816328
      CHANNELS 3 Zrotation Xrotation Yrotation
      JOINT AnkleRight
      {
        OFFSET -7.194435 -33.045821 2.422049
        CHANNELS 3 Zrotation Xrotation Yrotation
        JOINT FootRight
        {
          OFFSET 10.300478 -3.916202 -3.857910
          CHANNELS 3 Zrotation Xrotation Yrotation
          End Site
          {
            OFFSET 0 0 0
          }
        }
      }
    }
  }
}
MOTION
Frames: 6
Frame Time: 0.033333
-60.048313 80.143031 228.391741 -0.663986 -4.154775 -73.690009 -0.709510 -0.475970 73.648670 -0.135231 -0.064521 -0.015553 5.075412 -3.670319 0.386150 0.000000 0.000000 0.000000 13.988791 -8.870569 -4.591615 -58.546519 28.389113 12.215025 5.619365 16.227607 -32.389065 3.841413 -4.978445 20.238663 0.000000 0.000000 0.000000 0.000000 0.000000 0.000000 -12.145463 72.506284 25.231547 -3.970912 -50.960713 -16.564601 -97.272610 -46.873273 -73.072038 38.568269 11.052276 15.739189 0.000000 0.000000 0.000000 0.000000 0.000000 0.000000 0.337702 -3.196362 74.033764 6.975052 4.509390 -0.321901 -36.081970 -10.766205 -12.020413 0.000000 0.000000 0.000000 2.355576 -9.753194 77.717181 7.914885 13.908764 -5.226019 -45.579176 -18.768938 -23.443214 0.000000 0.000000 0.000000
-60.174003 80.242897 228.827495 -0.931011 -3.115643 -74.089808 -1.042882 -0.495443 74.034516 -0.233276 0.079891 -0.043946 5.651784 -4.207450 0.282446 0.000000 0.000000 0.000000 13.930432 -8.970513 -4.054753 -60.291722 28.899026 11.212112 6.864634 14.937464 -28.441961 3.999376 -5.707624 20.830247 0.000000 0.000000 0.000000 0.000000 0.000000 0.000000 -13.387772 72.146288 26.410167 -3.243639 -51.578420 -16.178754 -91.215527 -48.210031 -67.343173 35.081094 4.213338 20.273488 0.000000 0.000000 0.000000 0.000000 0.000000 0.000000 1.235695 -2.962432 74.392058 6.751668 4.648498 -0.416078 -43.379885 -12.616051 -15.361393 0.000000 0.000000 0.000000 4.179994 -6.629513 76.922143 2.713407 13.269375 -3.538368 -42.913788 -18.107088 -22.409332 0.000000 0.000000 0.000000
-60.455437 80.356331 229.121219 -1.455462 -1.877320 -74.538220 -1.517124 -0.536777 74.464040 -0.358341 0.212857 -0.088267 5.937151 -4.129490 0.199743 0.000000 0.000000 0.000000 14.209570 -8.762013 -3.419558 -61.601449 29.153110 9.860364 7.657533 14.354717 -25.111884 5.024577 -7.050959 22.448033 0.000000 0.000000 0.000000 0.000000 0.000000 0.000000 -13.790946 70.773345 26.549560 -1.502550 -51.581208 -14.826247 -81.985129 -48.365583 -56.255774 31.689332 -4.032954 22.294387 0.000000 0.000000 0.000000 0.000000 0.000000 0.000000 2.357028 -2.530624 74.789675 6.888992 4.367666 -0.387295 -43.950458 -12.657129 -15.536853 0.000000 0.000000 0.000000 5.964912 -3.574404 76.225006 -3.035177 12.864211 -2.013137 -42.730097 -18.257583 -22.949380 0.000000 0.000000 0.000000
-60.838832 80.475697 229.292265 -2.168998 -0.513496 -75.213369 -1.998568 -0.614739 75.127807 -0.473332 0.292565 -0.142841 5.881989 -3.830762 0.222764 0.000000 0.000000 0.000000 14.670511 -8.349745 -2.739347 -62.429068 29.163723 8.922094 9.310236 13.546453 -24.417663 6.697817 -8.666140 26.148074 0.000000 0.000000 0.000000 0.000000 0.000000 0.000000 -13.105717 69.517924 26.473837 -0.757423 -51.722436 -14.354231 -70.934075 -47.131593 -43.176297 26.998567 -18.656208 17.799618 0.000000 0.000000 0.000000 0.000000 0.000000 0.000000 3.648149 -1.948314 75.414387 7.253567 3.822332 -0.268983 -37.618726 -11.063295 -12.664790 0.000000 0.000000 0.000000 7.568113 -1.105319 76.033084 -5.090265 11.044318 -1.014038 -37.121779 -16.638313 -18.958949 0.000000 0.000000 0.000000
-61.274201 80.590966 229.336456 -2.982518 0.846985 -77.096953 -2.406655 -0.809249 77.011906 -0.597758 0.314530 -0.205612 4.928695 -3.296980 0.482045 0.000000 0.000000 0.000000 15.080304 -7.756811 -2.025751 -62.715225 29.312798 6.950819 8.828537 14.218182 -21.720910 9.637425 -10.525348 27.910883 0.000000 0.000000 0.000000 0.000000 0.000000 0.000000 -12.599785 68.630370 26.861481 -0.908128 -50.901261 -14.866987 -62.805141 -46.279862 -35.408069 22.753251 -27.114302 13.853326 0.000000 0.000000 0.000000 0.000000 0.000000 0.000000 5.006604 -1.237205 77.255129 7.901576 2.972696 -0.031452 -26.245187 -7.236626 -8.217871 0.000000 0.000000 0.000000 8.190818 0.761298 77.425234 -4.222107 8.165341 -0.550355 -20.006511 -11.065491 -9.264394 0.000000 0.000000 0.000000
-61.690015 80.711331 229.355443 -3.848348 2.268818 -77.316939 -2.746434 -0.859054 77.259870 -0.579429 0.292927 -0.257554 4.702523 -3.358555 0.614478 0.000000 0.000000 0.000000 15.609778 -7.076143 -1.393189 -63.328248 29.327452 5.448697 9.054142 14.110794 -19.468867 9.748043 -11.824134 29.236026 0.000000 0.000000 0.000000 0.000000 0.000000 0.000000 -14.099206 68.239185 28.246438 0.580909 -51.782374 -13.782221 -53.412568 -43.551671 -25.406077 15.770470 -39.440493 3.635395 0.000000 0.000000 0.000000 0.000000 0.000000 0.000000 6.127810 -0.586602 77.452225 8.686665 1.701491 0.311266 -13.559177 -1.642510 -4.097364 0.000000 0.000000 0.000000 8.807596 0.996670 77.754359 -1.577618 5.943648 -0.593928 -13.848004 -7.033969 -6.256800 0.000000 0.000000 0.000000
